# xmcd
#
# Track frame offsets:
# 150
# 22197
# 37612
# 50227
# 66214
# 83107
# 95007
# 111864
# 123714
# 142678
#
# Disc length: 2085 seconds
#
#
# Revision: 0
# Processed by: cddbd v1.5.2PL0 Copyright (c) Steve Scherf et al.
# Submitted via: Nero 7, 11, 10, 0 
#
DISCID=8708230a
DTITLE=TJ Sullivan - The Adventures Of Thelonius James
DYEAR=2004
DGENRE=Blues
TTITLE0=Momma's Got A New Tattoo
TTITLE1=Third Time's A Charm
TTITLE2=Woman Lookin' For A Man
TTITLE3=Through Drunken Eyes
TTITLE4=Who Do You Think You're Foolin'
TTITLE5=Drinkin' The Blues
TTITLE6=Baby I Know
TTITLE7=Fat Kats - Deep Pockets
TTITLE8=In These Blues
TTITLE9=Let Me Miss You Baby
EXTD=
EXTT0=Momma's Got A New Tattoo
EXTT1=Third Time's A Charm
EXTT2=Woman Lookin' For A Man
EXTT3=Through Drunken Eyes
EXTT4=Who Do You Think You're Foolin'
EXTT5=Drinkin' The Blues
EXTT6=Baby I Know
EXTT7=Fat Kats - Deep Pockets
EXTT8=In These Blues
EXTT9=Let Me Miss You Baby
PLAYORDER=
